<svg width="107" height="32" viewBox="0 0 107 32" fill="none" xmlns="http://www.w3.org/2000/svg">
<g clip-path="url(#clip0_1811_2559)">
<path d="M16.2179 2.03205L18.7244 2.47075L17.9547 6.86411L19.5453 7.14118L20.5792 1.24189L16.4809 0.52356L16.2179 2.03205Z" fill="#49317A"/>
<path d="M24.3734 11.5793L28.9605 7.72464L26.286 4.53961L25.1136 5.52475L26.7503 7.47322L23.3357 10.3427L24.3734 11.5793Z" fill="#49317A"/>
<path d="M29.6854 16.4669H25.2253V18.0806H31.2144V13.922H29.6854V16.4669Z" fill="#49317A"/>
<path d="M26.1512 25.2404L22.7379 22.3723L21.6989 23.6088L26.2859 27.4609L28.9604 24.2758L27.7893 23.2907L26.1512 25.2404Z" fill="#49317A"/>
<path d="M17.8072 29.6919L17.0375 25.2999L15.4482 25.5782L16.4808 31.4775L20.5792 30.7605L20.3149 29.252L17.8072 29.6919Z" fill="#49317A"/>
<path d="M9.38734 23.0691L6.38831 28.2526L9.98894 30.3358L10.756 29.0094L8.55228 27.737L10.7855 23.8772L9.38734 23.0691Z" fill="#49317A"/>
<path d="M6.90909 18.7652L6.35752 17.249L0.728882 19.2988L2.15143 23.206L3.58938 22.6827L2.71969 20.2904L6.90909 18.7652Z" fill="#49317A"/>
<path d="M3.03652 10.8366L7.22849 12.3618L7.77879 10.8443L2.15143 8.79578L0.728882 12.7043L2.16683 13.2276L3.03652 10.8366Z" fill="#49317A"/>
<path d="M6.38831 3.74979L7.15538 5.07485L9.35783 3.79981L11.5911 7.65956L12.988 6.85144L9.98894 1.66663L6.38831 3.74979Z" fill="#49317A"/>
<path d="M49.6588 3.45325H46.2518V28.6397H62.3258V25.6458H49.6588V3.45325Z" fill="#49317A"/>
<path d="M72.6583 8.49072C67.8442 8.49072 64.9926 11.0459 64.3628 15.379V15.3816H67.6235C68.0314 12.8623 69.5489 11.3063 72.3645 11.3063C75.7355 11.3063 77.2171 13.0483 77.2171 16.2333V16.6771C73.4394 16.7156 70.7342 16.9375 68.0686 17.8252C65.1799 18.7885 63.6984 20.7498 63.6984 23.4551C63.6984 27.1955 66.4383 29.085 70.5123 29.085C72.8827 29.085 75.5483 28.0101 77.2158 25.5293C77.2325 26.7107 77.2107 27.7292 77.2107 28.6399H80.4842L80.474 16.1576C80.474 11.5642 77.9188 8.48944 72.6583 8.48944V8.49072ZM77.2158 20.0469C77.2158 23.4179 74.4746 26.2694 70.8458 26.2694C68.5497 26.2681 67.0309 25.1945 67.0309 23.3794C67.0309 20.9717 68.846 19.1951 77.2158 19.1207V20.0469Z" fill="#49317A"/>
<path d="M87.5865 8.97333H84.327V28.6402H87.5865V8.97333Z" fill="#49317A"/>
<path d="M85.9769 2.91608H85.9371C84.9353 2.91608 84.1221 3.72933 84.1221 4.73115C84.1221 5.73296 84.9353 6.54621 85.9371 6.54621H85.9769C86.9787 6.54621 87.792 5.73424 87.792 4.73115C87.792 3.72805 86.9787 2.91608 85.9769 2.91608Z" fill="#49317A"/>
<path d="M93.6977 14.0101C93.6977 12.3811 95.1049 11.1586 97.5497 11.1586C100.327 11.1586 102.03 12.3067 102.513 15.3814H105.772C105.142 10.4929 101.994 8.4931 97.7345 8.4931C92.9191 8.4931 90.5858 11.2343 90.5858 14.2333C90.5858 22.3813 103.217 17.9366 103.217 23.3074C103.217 25.1584 101.734 26.4924 98.6978 26.4924C95.6616 26.4924 93.6233 24.975 93.1795 22.2337H89.92C90.6602 26.8644 93.9568 29.0861 98.5875 29.0861C103.218 29.0861 106.478 26.7528 106.478 23.0855C106.478 14.9735 93.699 19.4925 93.699 14.0114L93.6977 14.0101Z" fill="#49317A"/>
</g>
<defs>
<clipPath id="clip0_1811_2559">
<rect width="105.747" height="30.9537" fill="white" transform="translate(0.728882 0.52356)"/>
</clipPath>
</defs>
</svg>
